<?xml version="1.0" encoding="UTF-8" standalone="no"?>
<!DOCTYPE svg PUBLIC "-//W3C//DTD SVG 1.1//EN" "http://www.w3.org/Graphics/SVG/1.1/DTD/svg11.dtd">
<svg width="100%" height="100%" viewBox="0 0 576 512" version="1.1" xmlns="http://www.w3.org/2000/svg" xmlns:xlink="http://www.w3.org/1999/xlink" xml:space="preserve" xmlns:serif="http://www.serif.com/" style="fill-rule:evenodd;clip-rule:evenodd;stroke-linejoin:round;stroke-miterlimit:2;">
    <path d="M528,32L48,32C21.5,32 0,53.5 0,80L0,432C0,458.5 21.5,480 48,480L528,480C554.5,480 576,458.5 576,432L576,80C576,53.5 554.5,32 528,32ZM176,128C211.3,128 240,156.7 240,192C240,227.3 211.3,256 176,256C140.7,256 112,227.3 112,192C112,156.7 140.7,128 176,128ZM288,364.8C288,375.4 278,384 265.6,384L86.4,384C74,384 64,375.4 64,364.8L64,345.6C64,313.8 94.1,288 131.2,288L136.2,288C148.5,293.1 161.9,296 176,296C190.1,296 203.6,293.1 215.8,288L220.8,288C257.9,288 288,313.8 288,345.6L288,364.8ZM512,312C512,316.4 508.4,320 504,320L360,320C355.6,320 352,316.4 352,312L352,296C352,291.6 355.6,288 360,288L504,288C508.4,288 512,291.6 512,296L512,312ZM512,248C512,252.4 508.4,256 504,256L360,256C355.6,256 352,252.4 352,248L352,232C352,227.6 355.6,224 360,224L504,224C508.4,224 512,227.6 512,232L512,248ZM512,184C512,188.4 508.4,192 504,192L360,192C355.6,192 352,188.4 352,184L352,168C352,163.6 355.6,160 360,160L504,160C508.4,160 512,163.6 512,168L512,184Z" style="fill:rgb(142,140,132);fill-rule:nonzero;"/>
</svg>
