<?xml version="1.0" encoding="UTF-8" standalone="no"?>
<!DOCTYPE svg PUBLIC "-//W3C//DTD SVG 1.1//EN" "http://www.w3.org/Graphics/SVG/1.1/DTD/svg11.dtd">
<svg width="100%" height="100%" viewBox="0 0 576 512" version="1.1" xmlns="http://www.w3.org/2000/svg" xmlns:xlink="http://www.w3.org/1999/xlink" xml:space="preserve" xmlns:serif="http://www.serif.com/" style="fill-rule:evenodd;clip-rule:evenodd;stroke-linejoin:round;stroke-miterlimit:2;">
    <path d="M569.517,440.013C587.975,472.007 564.806,512 527.94,512L48.054,512C11.117,512 -11.945,471.945 6.477,440.013L246.423,23.985C264.89,-8.024 311.143,-7.966 329.577,23.985L569.517,440.013ZM288,354C262.595,354 242,374.595 242,400C242,425.405 262.595,446 288,446C313.405,446 334,425.405 334,400C334,374.595 313.405,354 288,354ZM244.327,188.654L251.745,324.654C252.092,331.018 257.354,336 263.727,336L312.273,336C318.646,336 323.908,331.018 324.255,324.654L331.673,188.654C332.048,181.78 326.575,176 319.691,176L256.308,176C249.424,176 243.952,181.78 244.327,188.654Z" style="fill:rgb(142,140,132);fill-rule:nonzero;"/>
</svg>
