<?xml version="1.0" encoding="UTF-8" standalone="no"?>
<!DOCTYPE svg PUBLIC "-//W3C//DTD SVG 1.1//EN" "http://www.w3.org/Graphics/SVG/1.1/DTD/svg11.dtd">
<svg width="100%" height="100%" viewBox="0 0 512 512" version="1.1" xmlns="http://www.w3.org/2000/svg" xmlns:xlink="http://www.w3.org/1999/xlink" xml:space="preserve" xmlns:serif="http://www.serif.com/" style="fill-rule:evenodd;clip-rule:evenodd;stroke-linejoin:round;stroke-miterlimit:2;">
    <path d="M480,160L32,160C14.327,160 0,145.673 0,128L0,64C0,46.327 14.327,32 32,32L480,32C497.673,32 512,46.327 512,64L512,128C512,145.673 497.673,160 480,160ZM432,72C418.745,72 408,82.745 408,96C408,109.255 418.745,120 432,120C445.255,120 456,109.255 456,96C456,82.745 445.255,72 432,72ZM368,72C354.745,72 344,82.745 344,96C344,109.255 354.745,120 368,120C381.255,120 392,109.255 392,96C392,82.745 381.255,72 368,72ZM480,320L32,320C14.327,320 0,305.673 0,288L0,224C0,206.327 14.327,192 32,192L480,192C497.673,192 512,206.327 512,224L512,288C512,305.673 497.673,320 480,320ZM432,232C418.745,232 408,242.745 408,256C408,269.255 418.745,280 432,280C445.255,280 456,269.255 456,256C456,242.745 445.255,232 432,232ZM368,232C354.745,232 344,242.745 344,256C344,269.255 354.745,280 368,280C381.255,280 392,269.255 392,256C392,242.745 381.255,232 368,232ZM480,480L32,480C14.327,480 0,465.673 0,448L0,384C0,366.327 14.327,352 32,352L480,352C497.673,352 512,366.327 512,384L512,448C512,465.673 497.673,480 480,480ZM432,392C418.745,392 408,402.745 408,416C408,429.255 418.745,440 432,440C445.255,440 456,429.255 456,416C456,402.745 445.255,392 432,392ZM368,392C354.745,392 344,402.745 344,416C344,429.255 354.745,440 368,440C381.255,440 392,429.255 392,416C392,402.745 381.255,392 368,392Z" style="fill:rgb(238,238,238);fill-rule:nonzero;"/>
</svg>
