<?xml version="1.0" encoding="UTF-8" standalone="no"?>
<!DOCTYPE svg PUBLIC "-//W3C//DTD SVG 1.1//EN" "http://www.w3.org/Graphics/SVG/1.1/DTD/svg11.dtd">
<svg width="100%" height="100%" viewBox="0 0 576 512" version="1.1" xmlns="http://www.w3.org/2000/svg" xmlns:xlink="http://www.w3.org/1999/xlink" xml:space="preserve" xmlns:serif="http://www.serif.com/" style="fill-rule:evenodd;clip-rule:evenodd;stroke-linejoin:round;stroke-miterlimit:2;">
    <path d="M280.37,148.26L96,300.11L96,464C96,472.777 103.223,480 112,480L224.06,479.71C232.807,479.666 239.98,472.457 239.98,463.71L239.98,368C239.98,359.223 247.203,352 255.98,352L319.98,352C328.757,352 335.98,359.223 335.98,368L335.98,463.64C335.98,463.657 335.98,463.673 335.98,463.69C335.98,472.467 343.203,479.69 351.98,479.69C351.98,479.69 351.98,479.69 351.98,479.69L464,480C472.777,480 480,472.777 480,464L480,300L295.67,148.26C291.221,144.674 284.819,144.674 280.37,148.26ZM571.6,251.47L488,182.56L488,44.05C488,37.467 482.583,32.05 476,32.05L420,32.05C413.417,32.05 408,37.467 408,44.05L408,116.66L318.47,43C300.819,28.475 275.121,28.475 257.47,43L4.34,251.47C1.584,253.748 -0.015,257.143 -0.015,260.72C-0.015,263.512 0.96,266.219 2.74,268.37L28.24,299.37C30.518,302.14 33.922,303.748 37.508,303.748C40.297,303.748 43,302.776 45.15,301L280.37,107.26C284.819,103.674 291.221,103.674 295.67,107.26L530.9,301C533.051,302.78 535.758,303.755 538.55,303.755C542.127,303.755 545.522,302.156 547.8,299.4L573.3,268.4C575.064,266.253 576.029,263.559 576.029,260.781C576.029,257.171 574.401,253.747 571.6,251.47Z" style="fill:rgb(41,171,224);fill-rule:nonzero;"/>
</svg>
